<svg xmlns="http://www.w3.org/2000/svg" viewBox="0 0 127.56 127.56"><defs><style>.cls-1,.cls-2{fill:#fff;}.cls-1,.cls-3{stroke:#1e1e1c;stroke-miterlimit:10;}.cls-1{stroke-width:2px;}.cls-3{fill:#1e1e1c;stroke-width:0.5px;}</style></defs><g id="Ebene_6" data-name="Ebene 6"><path class="cls-1" d="M43.57,80.85a3.87,3.87,0,0,1,2.63-4.8L80.81,65.92a1.88,1.88,0,0,0-1-3.6L50.85,70.76a3.87,3.87,0,0,1-2.17-7.43l35.64-10.4a3.53,3.53,0,0,0,2.58-2.68,4.26,4.26,0,0,0-1.84-4.07c-1.66-1.28-14-10.13-14.5-10.52a3.88,3.88,0,0,1-.72-5.41c1.65-2.19,4.3-1.3,5.73-.58s6.34,3.11,12.34,6c7.7,3.75,17,8.3,22.28,10.91a24.07,24.07,0,0,1,12.52,14.9c3.89,13.32-4.22,25.4-20.18,30.06l-33.31,9.77a3.87,3.87,0,0,1-2.17-7.43L87.26,88a1.87,1.87,0,0,0,1.27-2.33h0a1.86,1.86,0,0,0-2.3-1.27L57.32,92.87a3.87,3.87,0,0,1-2.17-7.43L84.07,77a1.88,1.88,0,1,0-1-3.62l-.08,0L48.37,83.47A3.87,3.87,0,0,1,43.57,80.85Z"/><path class="cls-2" d="M54.11,101.09a4.92,4.92,0,0,1-2-.41L21.88,87.43C14.49,84.2,9,79.42,6.12,73.62A21.37,21.37,0,0,1,5.81,55,24.17,24.17,0,0,1,20.16,41.74C25.28,40,34,37,42.53,34.13c5.76-2,11-3.74,12.37-4.21a8.21,8.21,0,0,1,2.73-.52,4.47,4.47,0,0,1,4.12,2.3A4.94,4.94,0,0,1,60,38.43l-.12.07C53.45,42,46.21,45.89,45,46.6a2.82,2.82,0,0,0-1.61,2.47,2.08,2.08,0,0,0,1.38,1.76L77.17,65a5,5,0,1,1-4,9.07L46.94,62.55a.55.55,0,0,0-.75.48.53.53,0,0,0,.32.49L78,77.26a4.93,4.93,0,0,1-2,9.45h0a5,5,0,0,1-2-.41L42.53,72.6a.46.46,0,0,0-.21,0,.55.55,0,0,0-.53.54.54.54,0,0,0,.32.48L68.39,85a4.94,4.94,0,0,1-4,9L38.16,82.62a.49.49,0,0,0-.21,0,.52.52,0,0,0-.46.29v0l0,.06a.62.62,0,0,0,0,.38.55.55,0,0,0,.29.29l18.36,8a4.93,4.93,0,0,1-2,9.46Z"/><path class="cls-3" d="M57.63,30.64a3.27,3.27,0,0,1,3,1.68,3.68,3.68,0,0,1-1.33,5c-.54.29-13.25,7.17-15,8.16a4.05,4.05,0,0,0-2.23,3.63A3.34,3.34,0,0,0,44.25,52L76.64,66.1a3.68,3.68,0,1,1-2.94,6.75L47.4,61.4a1.75,1.75,0,0,0-.72-.15A1.79,1.79,0,0,0,44.9,63,1.77,1.77,0,0,0,46,64.67L77.43,78.41A3.68,3.68,0,0,1,76,85.47a3.78,3.78,0,0,1-1.48-.31L43,71.45a1.79,1.79,0,1,0-1.44,3.27L67.88,86.18a3.68,3.68,0,1,1-2.94,6.75L38.66,81.47a1.79,1.79,0,0,0-2.35.92h0a1.77,1.77,0,0,0,.92,2.35h0l18.36,8a3.69,3.69,0,1,1-2.94,6.76L22.38,86.25C7.87,79.93,1.67,67.54,7,55.42A23,23,0,0,1,20.58,42.9c5.27-1.84,14.63-5,22.35-7.61,6-2,11-3.74,12.39-4.21a7.3,7.3,0,0,1,2.3-.46m0-2.51h0a9.71,9.71,0,0,0-3.15.59c-1.3.46-6.36,2.17-12.35,4.2-8.5,2.9-17.24,5.86-22.37,7.63A25.44,25.44,0,0,0,4.66,54.45,22.9,22.9,0,0,0,5,74.16c3.08,6.16,8.71,11.08,16.37,14.42l30.27,13.25a6.19,6.19,0,0,0,8.24-7.93,4.41,4.41,0,0,0-.24-.54l4.3,1.88a6.19,6.19,0,0,0,8-8.46l1.56.68a6.19,6.19,0,1,0,5-11.35h0l-1.56-.69a6.19,6.19,0,0,0,.76-11.62L45.25,49.66a.91.91,0,0,1-.61-.69,1.8,1.8,0,0,1,1-1.31c1-.58,6.5-3.59,14.73-8l.16-.08h0a6.21,6.21,0,0,0,2.26-8.45,5.75,5.75,0,0,0-5.21-2.94Z"/></g></svg>