<?xml version="1.0" encoding="utf-8"?>
<!-- Generator: Adobe Illustrator 23.0.3, SVG Export Plug-In . SVG Version: 6.00 Build 0)  -->
<svg version="1.1" id="Ebene_1" xmlns="http://www.w3.org/2000/svg" xmlns:xlink="http://www.w3.org/1999/xlink" x="0px" y="0px"
	 viewBox="0 0 127.6 127.6" style="enable-background:new 0 0 127.6 127.6;" xml:space="preserve">
<style type="text/css">
	.st0{fill:#FFFFFF;}
</style>
<path d="M106.7,66.6H23.5L7,121.9h114.5L106.7,66.6z M25.1,68.7h80l13.7,51h-9.1c-4.8-18.1-9.6-26.4-25.7-30.4
	c-4.4-1.1-10.1-0.4-16.1,0.4c-11.2,1.4-21.8,2.7-23.7-6.9c-0.9-4.4-3-7.4-6.2-8.9c-5-2.3-11.4-0.3-14.8,1.1L25.1,68.7z M22.3,77.9
	c1.8-0.9,9.4-4.4,14.7-1.9c2.5,1.2,4.2,3.6,5,7.3c2.3,11.5,15,10,26.1,8.6c5.8-0.7,11.3-1.4,15.3-0.4c14.7,3.6,19.2,10.6,23.9,28.3
	H9.9L22.3,77.9z"/>
<path class="st0" d="M92.2,35.2c0-15.4-12.5-28-28-28s-28,12.5-28,28c0,3.8,0.8,7.4,2.1,10.7h0L64.1,100l26-54h0
	C91.4,42.6,92.2,39,92.2,35.2z M64.2,47.7c-6.9,0-12.5-5.6-12.5-12.5s5.6-12.5,12.5-12.5c6.9,0,12.5,5.6,12.5,12.5
	S71.2,47.7,64.2,47.7z"/>
<path d="M64.1,101.8C64.1,101.8,64.1,101.8,64.1,101.8c-0.7,0-1.3-0.4-1.6-1L36.8,46.7c0-0.1-0.1-0.1-0.1-0.2
	c-1.5-3.6-2.2-7.4-2.2-11.2c0-16.4,13.4-29.8,29.8-29.8S94,18.8,94,35.2c0,3.9-0.8,7.7-2.2,11.3c0,0.1,0,0.1-0.1,0.2l-26,54
	C65.4,101.4,64.8,101.8,64.1,101.8z M40.1,45.2l24,50.6l24.3-50.5c0,0,0,0,0,0c1.3-3.2,2-6.6,2-10.1C90.4,20.8,78.7,9,64.2,9
	S38.1,20.8,38.1,35.2C38.1,38.7,38.8,42,40.1,45.2C40.1,45.2,40.1,45.2,40.1,45.2z"/>
<path d="M64.2,49.5c-7.9,0-14.3-6.4-14.3-14.3s6.4-14.3,14.3-14.3s14.3,6.4,14.3,14.3S72.1,49.5,64.2,49.5z M64.2,24.5
	c-5.9,0-10.7,4.8-10.7,10.7s4.8,10.7,10.7,10.7S75,41.1,75,35.2S70.2,24.5,64.2,24.5z"/>
</svg>
