<svg xmlns="http://www.w3.org/2000/svg" viewBox="0 0 127.56 127.56"><defs><style>.cls-1,.cls-2{fill:none;stroke-width:2px;}.cls-1,.cls-2,.cls-3,.cls-4{stroke:#1d1d1b;}.cls-1,.cls-3{stroke-miterlimit:10;}.cls-2,.cls-4{stroke-linecap:round;stroke-linejoin:round;}.cls-3,.cls-4{fill:#fff;stroke-width:3.5px;}</style></defs><g id="Ebene_9" data-name="Ebene 9"><circle class="cls-1" cx="32.1" cy="29.13" r="11.01"/><path class="cls-2" d="M44.86,58.3v46.1a5.44,5.44,0,0,1-5.43,5.44h-1.9a5.44,5.44,0,0,1-5.43-5.44V80.32"/><path class="cls-2" d="M19.18,78.4H14.39A3.37,3.37,0,0,1,11,75V55.32a15,15,0,0,1,15-15H38.17a15,15,0,0,1,15,15V75A3.37,3.37,0,0,1,49.8,78.4H45"/><path class="cls-2" d="M19.33,58.3v46.1a5.44,5.44,0,0,0,5.44,5.44h1.89a5.45,5.45,0,0,0,5.44-5.44"/><circle class="cls-1" cx="93.88" cy="23.07" r="11.84"/><path class="cls-2" d="M107.61,54.43V104a5.85,5.85,0,0,1-5.85,5.85h-2A5.85,5.85,0,0,1,93.88,104V78.11"/><path class="cls-2" d="M80,76H74.85a3.62,3.62,0,0,1-3.62-3.63V51.23A16.12,16.12,0,0,1,87.35,35.11h13.07a16.12,16.12,0,0,1,16.12,16.12V72.41A3.63,3.63,0,0,1,112.91,76h-5.14"/><path class="cls-2" d="M80.16,69.72V104A5.84,5.84,0,0,0,86,109.84h2A5.84,5.84,0,0,0,93.88,104"/><circle class="cls-3" cx="49.51" cy="48.34" r="10.55"/><path class="cls-4" d="M38.83,90.35H34.88a2.78,2.78,0,0,1-2.78-2.79V71.28A12.39,12.39,0,0,1,44.49,58.89h10A12.39,12.39,0,0,1,66.92,71.28V87.56a2.79,2.79,0,0,1-2.79,2.79H60.18"/><path class="cls-4" d="M60.06,73.74v38.09a4.5,4.5,0,0,1-4.5,4.5H54a4.5,4.5,0,0,1-4.49-4.5v0a4.5,4.5,0,0,1-4.5,4.5H43.45a4.5,4.5,0,0,1-4.49-4.5V73.74"/><circle class="cls-3" cx="70.24" cy="59.88" r="8.76"/><path class="cls-4" d="M60.44,94.75H56.81a2.44,2.44,0,0,1-2.55-2.31V78.92c0-5.68,5.09-10.28,11.37-10.28h9.21c6.28,0,11.37,4.6,11.37,10.28V92.44a2.44,2.44,0,0,1-2.55,2.31H80"/><path class="cls-4" d="M79.92,81V112.6a4,4,0,0,1-4.13,3.73H74.36a3.94,3.94,0,0,1-4.12-3.73v0a4,4,0,0,1-4.13,3.73H64.68a3.94,3.94,0,0,1-4.12-3.73V81"/></g></svg>