<svg xmlns="http://www.w3.org/2000/svg" viewBox="0 0 127.56 127.56"><defs><style>.cls-1,.cls-4,.cls-5{fill:#fff;}.cls-2,.cls-3{fill:none;}.cls-2,.cls-3,.cls-4,.cls-5{stroke:#1d1d1b;}.cls-2,.cls-4{stroke-linecap:round;stroke-width:3px;}.cls-2{stroke-linejoin:round;}.cls-3,.cls-4,.cls-5{stroke-miterlimit:10;}.cls-3,.cls-5{stroke-width:1.8px;}</style></defs><g id="Ebene_9" data-name="Ebene 9"><path class="cls-1" d="M86.69,36s-.9,8.72,10,8.62c6.7-.07,10.74,1.33,12.87,2.43a19.19,19.19,0,0,0,.18-2.53q0-.93-.09-1.86h0l-.61-3.35a19.83,19.83,0,0,0-38.21-.16l-.66,3.62c0,.58-.08,1.16-.08,1.75a21.87,21.87,0,0,0,.14,2.31c1.34-.54,3.8-1.5,7.84-2.84C84.8,41.78,86.32,39.42,86.69,36Z"/><path class="cls-1" d="M57.21,58.2c-3.4-3.84-6.57-3.42-8.46-1.85a14.31,14.31,0,0,0-27.58-.11c-1.9-1.52-5-1.79-8.31,2-5.4,6.1.06,14,4.61,14.36,0,0-5.33-9,3.23-12.72q-.06.63-.06,1.26a14.42,14.42,0,0,0,.32,3c.64-.28,2.4-1,5.87-2.17,4.53-1.51,5.56-3.11,5.81-5.39,0,0-.6,5.89,6.78,5.82,5.47,0,8.32,1.34,9.43,2.06a14.16,14.16,0,0,0,.41-3.35c0-.45,0-.9-.07-1.34h0c8.82,3.68,3.4,12.8,3.4,12.8C57.15,72.18,62.6,64.3,57.21,58.2Z"/><path class="cls-2" d="M57.21,58.2c-3.39-3.84-6.63-4.2-8.51-2.63C47,49.49,41.55,45.81,35,45.81s-12.21,3.74-13.9,9.76c-1.9-1.52-4.87-1.12-8.18,2.63-5.4,6.1.06,14,4.61,14.36,0,0-5.34-9,3.22-12.72,0,.42-.06.84-.06,1.26a14.31,14.31,0,0,0,28.62,0c0-.45,0-.9-.06-1.34h0c8.81,3.68,3.4,12.8,3.4,12.8C57.15,72.18,62.61,64.3,57.21,58.2Z"/><path class="cls-3" d="M21.05,64.05a59.5,59.5,0,0,1,6-2.23c4.41-1.48,5.42-3,5.66-5.25,0,0-.59,5.73,6.59,5.66S49,64.65,49,64.65"/><path class="cls-4" d="M55,108.94V92.55c0-6.89-.9-12.47-11.89-12.47L35,89.48,27,80.08c-11,0-11.89,5.58-11.89,12.47v16.39Z"/><line class="cls-5" x1="46.63" y1="93.11" x2="46.63" y2="108.94"/><line class="cls-5" x1="23.19" y1="93.11" x2="23.19" y2="108.94"/><path class="cls-2" d="M109.06,39.35a19.83,19.83,0,0,0-38.21-.16l-.66,3.62c0,.58-.08,1.16-.08,1.75a19.83,19.83,0,1,0,39.65,0q0-.93-.09-1.86h0Z"/><path class="cls-3" d="M70.68,47.26A82.42,82.42,0,0,1,79,44.17c6.11-2.05,7.51-4.2,7.84-7.28,0,0-.82,7.94,9.13,7.85s13.47,3.35,13.47,3.35"/><path class="cls-4" d="M117.71,108.94V86.24c0-9.55-1.25-17.28-16.48-17.28L90.05,82,78.87,69c-15.24,0-16.48,7.73-16.48,17.28v22.7Z"/><line class="cls-5" x1="106.11" y1="87.8" x2="106.11" y2="109.73"/><line class="cls-5" x1="73.63" y1="87.8" x2="73.63" y2="109.73"/></g></svg>